<?xml version="1.0" encoding="UTF-8"?>
<svg xmlns="http://www.w3.org/2000/svg" width="151.0mm" height="41.0mm" viewBox="0 0 151.0 41.0">
<g fill="none" stroke="#000000" stroke-width="0.1">
<path d="M 2.0 39.0 L 149.0 39.0 L 149.0 2.0 L 2.0 2.0 L 2.0 39.0" />
<circle cx="34.0" cy="20.5" r="4.0" />
<path d="M 93.0 26.0 L 124.0 26.0 L 124.0 15.0 L 93.0 15.0 L 93.0 26.0" />
<path d="M 125.99578030810449 10.722036168787668 L 125.99578030810449 9.869273275284655 L 125.36418285331547 9.869273275284655 L 125.36418285331547 9.516259209645 L 126.37856664434025 9.516259209645 L 126.37856664434025 10.879403884795721 L 126.26399656731414 10.96227446835232 L 126.14357836570662 11.034379186202273 L 126.01731203951775 11.095718038345609 L 125.88519758874747 11.146291024782329 L 125.74789957300734 11.185832321667789 L 125.60608255190891 11.214076105157403 L 125.45974652545209 11.231022375251172 L 125.30889149363696 11.236671131949095 L 124.99222883874748 11.20949064383791 L 124.71211696249162 11.127949179504355 L 124.46855586486939 10.992046738948432 L 124.26154554588078 10.801783322170138 L 124.09640248241794 10.563007053750852 L 123.97844315137309 10.281566058271949 L 123.90766755274615 9.95746033573343 L 123.88407568653719 9.590689886135294 L 123.90766755274615 9.22298905308105 L 123.97844315137309 8.89821877093101 L 124.09640248241794 8.6163790396852 L 124.26154554588078 8.377469859343591 L 124.46855586486939 8.187206442565298 L 124.71211696249162 8.051304002009374 L 124.99222883874748 7.96976253767582 L 125.30889149363696 7.942582049564635 L 125.44652178918284 7.947366878767582 L 125.58082928667113 7.961721366376423 L 125.71181398610182 7.985645512391159 L 125.83947588747489 8.019139316811788 L 125.96301751925654 8.061936955793698 L 126.08164140991292 8.1137726054923 L 126.19534755944406 8.174646265907569 L 126.30413596784996 8.24455793703953 L 126.30413596784996 8.701774949765564 L 126.19508173559947 8.607008749162759 L 126.08270470529135 8.524736269256522 L 125.96700487692567 8.454957510046881 L 125.84798225050235 8.397672471533838 L 125.72576973794375 8.353014065639655 L 125.60050025117215 8.321115204286684 L 125.47217379018755 8.301975887474896 L 125.34079035498996 8.29559611520429 L 125.09543494641662 8.31593163931683 L 124.88251004688547 8.376938211654391 L 124.7020156563965 8.47861583221703 L 124.55395177494975 8.620964501004693 L 124.43858422638982 8.803585482250497 L 124.35617883456129 9.026080040187537 L 124.30673559946416 9.288448174815812 L 124.29025452109846 9.590689886135294 L 124.30673559946416 9.892001213998668 L 124.35617883456129 10.153704789015393 L 124.43858422638982 10.375800611185525 L 124.55395177494975 10.558288680509037 L 124.7020156563965 10.700637349296699 L 124.88251004688547 10.802314969859339 L 125.09543494641662 10.8633215421969 L 125.34079035498996 10.88365706630944 L 125.4410724003684 10.881198195746805 L 125.53563923308775 10.87382158405893 L 125.62449085314802 10.861527231245816 L 125.70762726054923 10.844315137307433 L 125.78584592682517 10.821919478399195 L 125.85994432350972 10.794074430676488 L 125.92992245060282 10.760779994139313 L 125.99578030810449 10.722036168787668 Z" />
<path d="M 127.47163429336905 9.658740790354983 L 127.47163429336905 10.821985934360356 L 128.09047220361688 10.821985934360356 L 128.23660886219022 10.813014379604823 L 128.36240999665102 10.786099715338253 L 128.4678756069993 10.741241941560617 L 128.5530056932351 10.678441058271943 L 128.61859772689218 10.597165417783003 L 128.66544917950435 10.496883372404568 L 128.69356005107167 10.377594922136637 L 128.7029303415941 10.23930006697924 L 128.69356005107167 10.100207740288027 L 128.66544917950435 9.980653466175482 L 128.61859772689218 9.880637244641662 L 128.5530056932351 9.800159075686537 L 128.4678756069993 9.738288575853971 L 128.36240999665102 9.694095361687857 L 128.23660886219022 9.667579433188195 L 128.09047220361688 9.658740790354983 L 127.47163429336905 9.658740790354983 Z" />
<path d="M 127.47163429336905 8.353014065639655 L 127.47163429336905 9.309979906229074 L 128.04368720696584 9.309979906229074 L 128.17613393754186 9.3026032945412 L 128.29063755860682 9.280473459477548 L 128.38719807016074 9.243590401038176 L 128.46581547220362 9.191954119223027 L 128.52675558858004 9.125165878265221 L 128.5702842431346 9.042826942397852 L 128.59640143586736 8.94493731162089 L 128.60510716677828 8.831496985934365 L 128.59640143586736 8.718920587742815 L 128.5702842431346 8.621496148693893 L 128.52675558858004 8.539223668787685 L 128.46581547220362 8.472103148024104 L 128.38719807016074 8.420001674480915 L 128.29063755860682 8.382786336235768 L 128.17613393754186 8.36045713328869 L 128.04368720696584 8.353014065639655 L 127.47163429336905 8.353014065639655 Z" />
<path d="M 127.08459477561956 8.0 L 128.0713328868051 8.0 L 128.27980523693904 8.012759544541183 L 128.4628914099129 8.05103817816476 L 128.6205914057267 8.11483590087073 L 128.75290522438044 8.204152712659067 L 128.85757336319492 8.31699493469523 L 128.93233631949096 8.451368888144685 L 128.9771940932686 8.607274573007373 L 128.9921466845278 8.784711989283323 L 128.9845042489953 8.92294038847956 L 128.96157694239787 9.046282652377755 L 128.92336476473542 9.15473878097788 L 128.86986771600803 9.248308774279963 L 128.80148453198257 9.326328072672453 L 128.71861394842597 9.388132116543858 L 128.62125596533824 9.433720905894177 L 128.50941058271934 9.463094440723381 L 128.6448478315472 9.506357271433359 L 128.76406982585397 9.568094859343603 L 128.86707656563965 9.648307204454113 L 128.95386805090422 9.74699430676489 L 129.02271642665772 9.861630839752166 L 129.07189383791024 9.989691476892176 L 129.10140028466174 10.131176218184862 L 129.11123576691224 10.286085063630281 L 129.09495405643 10.486649154387152 L 129.04610892498323 10.663023275284672 L 128.964700372572 10.815207426322843 L 128.85072839919624 10.943201607501663 L 128.70671833137976 11.044613404219689 L 128.53519549564635 11.117050401875417 L 128.33615989199598 11.160512600468877 L 128.10961152042867 11.175000000000011 L 127.08459477561956 11.175000000000011 L 127.08459477561956 8.0 Z" />
<path d="M 131.484511051574 8.104202947086407 L 131.484511051574 8.523141326188892 L 131.3764536587408 8.468381614199586 L 131.27132032819824 8.421064969859344 L 131.1691110599464 8.381191393168109 L 131.06982585398526 8.348760884125909 L 130.9729330626256 8.32364053081045 L 130.87790103817818 8.305697421299385 L 130.784729780643 8.294931555592768 L 130.6934192900201 8.291342933690544 L 130.54409274531147 8.299849296718008 L 130.41297513395847 8.325368385800402 L 130.30006645596117 8.367900200937697 L 130.2053667113195 8.42744474212995 L 130.13047084310114 8.50267289015406 L 130.07697379437374 8.59225552578701 L 130.04487556513732 8.696192649028802 L 130.03417615539183 8.814484259879436 L 130.0412869432351 8.913304274112534 L 130.0626193067649 8.999231831882128 L 130.09817324598126 9.072266933188217 L 130.14794876088413 9.132409578030803 L 130.21766106413264 9.183514212156723 L 130.3130253683858 9.229435281312789 L 130.43404167364366 9.270172785498971 L 130.58070997990623 9.305726724715328 L 130.81250837240455 9.358891493636975 L 131.01513259795712 9.413318925820505 L 131.18918076021433 9.485157819825844 L 131.33465285917615 9.574408175653048 L 131.4515488948426 9.681069993302089 L 131.541330898359 9.806206568151396 L 131.60546090087072 9.95088119557937 L 131.64393890237776 10.11509387558607 L 131.6567649028801 10.298844608171464 L 131.63941989701942 10.51562395344942 L 131.58738487943737 10.704491795043538 L 131.50065985013396 10.865448132953787 L 131.37924480910917 10.99849296718017 L 131.22420305174145 11.102695914266576 L 131.03659787340922 11.17712659075687 L 130.81642927411252 11.221784996651024 L 130.5636972538513 11.236671131949095 L 130.46009241041526 11.233481245813806 L 130.35343059276624 11.223911587407912 L 130.24371180090424 11.207962156731412 L 130.1309360348292 11.185632953784335 L 130.0156349422304 11.157056890488946 L 129.89834017079704 11.122366878767593 L 129.77905172052914 11.081562918620222 L 129.65776959142664 11.034645010046887 L 129.65776959142664 10.592314132618895 L 129.77513081882117 10.6611625083724 L 129.89116292699262 10.720972873409238 L 130.00586591594106 10.771745227729411 L 130.11923978566645 10.813479571332891 L 130.2315503600134 10.846042992297384 L 130.34306346282654 10.869302578700626 L 130.4537790941058 10.883258330542532 L 130.5636972538513 10.887910247823186 L 130.71920420294708 10.87887223710652 L 130.8561034829203 10.851758204956468 L 130.97439509377094 10.806568151373085 L 131.07407903549898 10.743302076356343 L 131.1531616292699 10.663289099129258 L 131.20964919624916 10.567858338914931 L 131.2435417364367 10.457009795713304 L 131.25483924983254 10.330743469524435 L 131.24673162257199 10.220160750167452 L 131.22240874079034 10.12233757535165 L 131.1818706044876 10.037273945077033 L 131.12511721366377 9.964969859343597 L 131.04988906563966 9.903165815472192 L 130.9539266577361 9.849602310783666 L 130.8372299899531 9.804279345277962 L 130.69979906229068 9.767196918955136 L 130.4658740790355 9.716158740790348 L 130.26404732501675 9.661531940723364 L 130.092391577361 9.593348124581382 L 129.95090683606833 9.511607292364374 L 129.83959310113863 9.41630944407234 L 129.755393398359 9.30426469356999 L 129.6952507535164 9.172283154722038 L 129.65916516661085 9.020364827528482 L 129.64713663764232 8.848509711989294 L 129.66381708389147 8.649141828533175 L 129.71385842263896 8.472103148024132 L 129.7972606538848 8.317393670462167 L 129.91402377762893 8.185013395847278 L 130.06002752427997 8.078949681848627 L 130.23115162424648 8.003189886135289 L 130.42739607752847 7.957734008707291 L 130.64876088412592 7.942582049564635 L 130.75017268084395 7.9451073760884015 L 130.8523819490958 7.952683355659758 L 130.95538868888144 7.965309988278619 L 131.05919290020094 7.982987273945071 L 131.16392749497658 8.005715212659055 L 131.2697253851306 8.03349380442063 L 131.3765865706631 8.066323049229737 L 131.484511051574 8.104202947086407 Z" />
<path d="M 132.06719691895512 9.807602143335572 L 133.09859343603483 9.807602143335572 L 133.09859343603483 10.156363027461481 L 132.06719691895512 10.156363027461481 L 132.06719691895512 9.807602143335572 Z" />
<path d="M 134.53616878767582 9.667247153382448 L 134.4053834561286 9.677481371399864 L 134.28948425987943 9.708184025452113 L 134.18847119892834 9.759355115539165 L 134.1023442732753 9.830994641661079 L 134.03349589752176 9.92057727729403 L 133.98431848626925 10.02557769591425 L 133.95481203951775 10.145995897521772 L 133.94497655726724 10.281831882116535 L 133.95481203951775 10.417667866711298 L 133.98431848626925 10.538086068318819 L 134.03349589752176 10.64308648693904 L 134.1023442732753 10.732669122571991 L 134.18847119892834 10.804308648693905 L 134.28948425987943 10.855479738780957 L 134.4053834561286 10.886182392833206 L 134.53616878767582 10.896416610850622 L 134.66702057518418 10.886115936872045 L 134.7831191393168 10.855213914936371 L 134.88446448007366 10.803710545043515 L 134.97105659745478 10.731605827193562 L 135.04037016493635 10.641690911754836 L 135.08987985599464 10.536756949095775 L 135.1195856706296 10.416803939216322 L 135.12948760884126 10.281831882116535 L 135.1195856706296 10.145995897521772 L 135.08987985599464 10.02557769591425 L 135.04037016493635 9.92057727729403 L 134.97105659745478 9.830994641661079 L 134.88446448007366 9.759355115539165 L 134.7831191393168 9.708184025452113 L 134.66702057518418 9.677481371399864 L 134.53616878767582 9.667247153382448 Z" />
<path d="M 134.14912926992633 9.484360348292029 L 134.03163513060952 9.442758916610842 L 133.92796383121234 9.386005525786999 L 133.83811537173477 9.3141001758205 L 133.76208975217682 9.227042866711315 L 133.70161482752846 9.127226013060948 L 133.65841845277964 9.017042029470872 L 133.63250062793034 8.896490915941058 L 133.62386135298058 8.765572672471535 L 133.6390797680844 8.585211193904883 L 133.68473501339585 8.424786503683862 L 133.76082708891494 8.284298601808445 L 133.86735599464166 8.16374748827863 L 134.0004672848292 8.06698760884126 L 134.15630651373075 7.997873409243141 L 134.3348736813463 7.956404889484247 L 134.53616878767582 7.942582049564635 L 134.73832782150035 7.956404889484247 L 134.91736018084396 7.997873409243141 L 135.07326586570665 8.06698760884126 L 135.2060448760884 8.16374748827863 L 135.31210859008706 8.284298601808445 L 135.3878683858004 8.424786503683862 L 135.4333242632284 8.585211193904883 L 135.44847622237106 8.765572672471535 L 135.4398369474213 8.896490915941058 L 135.413919122572 9.017042029470872 L 135.37072274782318 9.127226013060948 L 135.31024782317482 9.227042866711315 L 135.2343551155392 9.3141001758205 L 135.14490539182853 9.386005525786999 L 135.04189865204287 9.442758916610842 L 134.9253348961822 9.484360348292029 L 135.0569841552244 9.529151666108504 L 135.1733485432016 9.591221533824523 L 135.27442806011388 9.670569951440058 L 135.36022270596115 9.767196918955136 L 135.42860588998658 9.878311286001349 L 135.47745102143335 10.001121902210315 L 135.5067581003014 10.135628767582062 L 135.51652712659074 10.281831882116535 L 135.5006441518754 10.49914287508372 L 135.4529952277294 10.689605659745496 L 135.37358035415272 10.853220236101805 L 135.26239953114535 10.989986604152705 L 135.12171226138648 11.097911085063629 L 134.95377804755526 11.175000000000011 L 134.7585968896517 11.221253348961824 L 134.53616878767582 11.236671131949095 L 134.31374068569994 11.221253348961824 L 134.11855952779638 11.175000000000011 L 133.95062531396516 11.097911085063629 L 133.8099380442063 10.989986604152705 L 133.69875722119892 10.853220236101805 L 133.61934234762225 10.689605659745496 L 133.57169342347623 10.49914287508372 L 133.5558104487609 10.281831882116535 L 133.5656459310114 10.135628767582062 L 133.5951523777629 10.001121902210315 L 133.64432978901542 9.878311286001349 L 133.71317816476892 9.767196918955136 L 133.79943800234426 9.670569951440058 L 133.90084979906229 9.591221533824523 L 134.01741355492297 9.529151666108504 L 134.14912926992633 9.484360348292029 Z" />
<path d="M 134.0087742799732 8.80597789685197 L 134.01741355492297 8.922541652712653 L 134.04333137977227 9.025548392498308 L 134.0865277545211 9.114998116208966 L 134.14700267916945 9.190890823844597 L 134.2231612106497 9.251365748492958 L 134.31340840589417 9.294562123241803 L 134.4177442649029 9.320479948091105 L 134.53616878767582 9.329119223040863 L 134.65379583891493 9.320479948091105 L 134.75786587407904 9.294562123241803 L 134.84837889316813 9.251365748492958 L 134.9253348961822 9.190890823844597 L 134.98674020428666 9.114998116208966 L 135.030601138647 9.025548392498308 L 135.0569176992632 8.922541652712653 L 135.0656898861353 8.80597789685197 L 135.0569176992632 8.689414140991289 L 135.030601138647 8.586407401205634 L 134.98674020428666 8.496957677494976 L 134.9253348961822 8.421064969859344 L 134.84837889316813 8.360590045210984 L 134.75786587407904 8.317393670462167 L 134.65379583891493 8.291475845612865 L 134.53616878767582 8.282836570663108 L 134.4177442649029 8.291475845612865 L 134.31340840589417 8.317393670462167 L 134.2231612106497 8.360590045210984 L 134.14700267916945 8.421064969859344 L 134.0865277545211 8.496957677494976 L 134.04333137977227 8.586407401205634 L 134.01741355492297 8.689414140991289 L 134.0087742799732 8.80597789685197 Z" />
<path d="M 136.53516409912928 10.813479571332891 L 137.88342263898193 10.813479571332891 L 137.88342263898193 11.175000000000011 L 136.06944072337575 11.175000000000011 L 136.06944072337575 10.813479571332891 L 136.18906145344943 10.676115099631602 L 136.32888479571332 10.517085984594758 L 136.48891075016746 10.336392226222358 L 136.6691393168118 10.134033824514404 L 136.8417919038848 9.939783050066978 L 136.97908991962493 9.783412173476222 L 137.08103336403215 9.664921194742107 L 137.1476222371065 9.584310113864689 L 137.2331510591092 9.4728634670127 L 137.3047241292699 9.370321918955113 L 137.36234144758876 9.27668546969187 L 137.40600301406565 9.191954119223027 L 137.43810124330207 9.112007597957131 L 137.46102854989954 9.032725636302757 L 137.474784933858 8.954108234259877 L 137.47937039517748 8.876155391828547 L 137.46940200100468 8.75547136637644 L 137.43949681848625 8.646483590087087 L 137.38965484762224 8.549192062960486 L 137.3198760884126 8.46359678499664 L 137.23401498660417 8.393818025786999 L 137.13592598794372 8.343976054922962 L 137.02560909243135 8.314070872404557 L 136.90306430006697 8.304102478231755 L 136.81135507367716 8.308488571667795 L 136.71698760884124 8.321646851975885 L 136.61996190555928 8.343577319156054 L 136.5202779638312 8.374279973208303 L 136.41753704789014 8.413887726054924 L 136.3113404219692 8.46253348961821 L 136.20168808606832 8.52021726389819 L 136.08858004018754 8.586939048894834 L 136.08858004018754 8.153114534494307 L 136.20361530894172 8.104202947086407 L 136.3147961319491 8.061671131949083 L 136.42212250920966 8.025519089082394 L 136.52559444072338 7.995746818486282 L 136.62494610264568 7.972487232083068 L 136.71991167113194 7.955873241795047 L 136.8104911461822 7.945904847622245 L 136.89668452779637 7.942582049564635 L 137.10761574849295 7.957999832551906 L 137.29595194239783 8.004253181513718 L 137.46169310951103 8.0813420964501 L 137.60483924983254 8.189266577361025 L 137.7202067983925 8.322975971198929 L 137.80261219022103 8.47741962491628 L 137.85205542531816 8.652597538513078 L 137.86853650368386 8.848509711989294 L 137.86441623409243 8.945070223543212 L 137.85205542531816 9.039105408573334 L 137.831454077361 9.13061526707969 L 137.80261219022103 9.21959979906228 L 137.7628715254521 9.311242569490958 L 137.70957384460817 9.410727143335578 L 137.6427191476892 9.518053520596112 L 137.56230743469524 9.633221701272618 L 137.52489272856664 9.678611122739454 L 137.46156019758874 9.75310825519091 L 137.37230984176156 9.856713098626926 L 137.25714166108506 9.989425653047562 L 137.11592274363696 10.15137883037508 L 136.94852017749497 10.342705542531831 L 136.75493396265907 10.563405789517759 L 136.53516409912928 10.813479571332891 Z" />
<path d="M 139.52089752176826 8.282836570663108 L 139.38120709142666 8.30323855073678 L 139.25985850636303 8.364444490957823 L 139.15685176657738 8.46645439132621 L 139.07218687206966 8.60926825184194 L 139.00612964668454 8.793018984427334 L 138.95894591426656 9.017839501004687 L 138.93063567481582 9.283729801574026 L 138.92119892833222 9.590689886135294 L 138.93063567481582 9.896719587240455 L 138.95894591426656 10.161945328198243 L 139.00612964668454 10.386367109008688 L 139.07218687206966 10.56998492967179 L 139.15685176657738 10.71279879018752 L 139.25985850636303 10.814808690555907 L 139.38120709142666 10.87601463077695 L 139.52089752176826 10.896416610850622 L 139.66145187960484 10.87601463077695 L 139.7832656563965 10.814808690555907 L 139.88633885214333 10.71279879018752 L 139.97067146684526 10.56998492967179 L 140.03626350050234 10.386367109008688 L 140.08311495311452 10.161945328198243 L 140.11122582468184 9.896719587240455 L 140.12059611520428 9.590689886135294 L 140.11122582468184 9.283729801574026 L 140.08311495311452 9.017839501004687 L 140.03626350050234 8.793018984427334 L 139.97067146684526 8.60926825184194 L 139.88633885214333 8.46645439132621 L 139.7832656563965 8.364444490957823 L 139.66145187960484 8.30323855073678 L 139.52089752176826 8.282836570663108 Z" />
<path d="M 139.52089752176826 7.942582049564635 L 139.7469807016075 7.968965066142005 L 139.94462073007367 8.048114115874085 L 140.11381760716677 8.180029198760877 L 140.2545713328868 8.364710314802409 L 140.3652869641661 8.599632137474885 L 140.44436955793705 8.88226934025451 L 140.49181911419961 9.212621923141313 L 140.5076356329538 9.590689886135294 L 140.49181911419961 9.967827465673139 L 140.44436955793705 10.29751548894842 L 140.3652869641661 10.579753955961166 L 140.2545713328868 10.81454286671132 L 140.11381760716677 10.999223982752852 L 139.94462073007367 11.131139065639644 L 139.7469807016075 11.210288115371725 L 139.52089752176826 11.236671131949095 L 139.294814341929 11.210288115371725 L 139.09717431346283 11.131139065639644 L 138.92797743636973 10.999223982752852 L 138.7872237106497 10.81454286671132 L 138.6765080793704 10.579753955961166 L 138.59742548559947 10.29751548894842 L 138.5499759293369 9.967827465673139 L 138.53415941058273 9.590689886135294 L 138.5499759293369 9.212621923141313 L 138.59742548559947 8.88226934025451 L 138.6765080793704 8.599632137474885 L 138.7872237106497 8.364710314802409 L 138.92797743636973 8.180029198760877 L 139.09717431346283 8.048114115874085 L 139.294814341929 7.968965066142005 L 139.52089752176826 7.942582049564635 Z" />
<path d="M 142.01326188881447 8.282836570663108 L 141.87357145847287 8.30323855073678 L 141.75222287340924 8.364444490957823 L 141.64921613362358 8.46645439132621 L 141.56455123911587 8.60926825184194 L 141.49849401373075 8.793018984427334 L 141.45131028131277 9.017839501004687 L 141.42300004186203 9.283729801574026 L 141.41356329537842 9.590689886135294 L 141.42300004186203 9.896719587240455 L 141.45131028131277 10.161945328198243 L 141.49849401373075 10.386367109008688 L 141.56455123911587 10.56998492967179 L 141.64921613362358 10.71279879018752 L 141.75222287340924 10.814808690555907 L 141.87357145847287 10.87601463077695 L 142.01326188881447 10.896416610850622 L 142.15381624665105 10.87601463077695 L 142.27563002344272 10.814808690555907 L 142.37870321918956 10.71279879018752 L 142.4630358338915 10.56998492967179 L 142.52862786754858 10.386367109008688 L 142.57547932016075 10.161945328198243 L 142.60359019172807 9.896719587240455 L 142.61296048225051 9.590689886135294 L 142.60359019172807 9.283729801574026 L 142.57547932016075 9.017839501004687 L 142.52862786754858 8.793018984427334 L 142.4630358338915 8.60926825184194 L 142.37870321918956 8.46645439132621 L 142.27563002344272 8.364444490957823 L 142.15381624665105 8.30323855073678 L 142.01326188881447 8.282836570663108 Z" />
<path d="M 142.01326188881447 7.942582049564635 L 142.2393450686537 7.968965066142005 L 142.4369850971199 8.048114115874085 L 142.606181974213 8.180029198760877 L 142.74693569993303 8.364710314802409 L 142.85765133121234 8.599632137474885 L 142.93673392498326 8.88226934025451 L 142.98418348124582 9.212621923141313 L 143.0 9.590689886135294 L 142.98418348124582 9.967827465673139 L 142.93673392498326 10.29751548894842 L 142.85765133121234 10.579753955961166 L 142.74693569993303 10.81454286671132 L 142.606181974213 10.999223982752852 L 142.4369850971199 11.131139065639644 L 142.2393450686537 11.210288115371725 L 142.01326188881447 11.236671131949095 L 141.78717870897523 11.210288115371725 L 141.58953868050904 11.131139065639644 L 141.42034180341594 10.999223982752852 L 141.2795880776959 10.81454286671132 L 141.1688724464166 10.579753955961166 L 141.08978985264568 10.29751548894842 L 141.04234029638312 9.967827465673139 L 141.02652377762894 9.590689886135294 L 141.04234029638312 9.212621923141313 L 141.08978985264568 8.88226934025451 L 141.1688724464166 8.599632137474885 L 141.2795880776959 8.364710314802409 L 141.42034180341594 8.180029198760877 L 141.58953868050904 8.048114115874085 L 141.78717870897523 7.968965066142005 L 142.01326188881447 7.942582049564635 Z" />
<path d="M 101.19516075016745 34.587500000000006 L 100.10421969189551 31.412499999999994 L 100.50827193569992 31.412499999999994 L 101.41419959812458 34.085624581379776 L 102.3222538513061 31.412499999999994 L 102.72417950435366 31.412499999999994 L 101.63536503683858 34.587500000000006 L 101.19516075016745 34.587500000000006 Z" />
<path d="M 105.08682183523109 34.134536168787676 L 105.08682183523109 33.281773275284664 L 104.45522438044208 33.281773275284664 L 104.45522438044208 32.92875920964501 L 105.46960817146686 32.92875920964501 L 105.46960817146686 34.291903884795715 L 105.35503809444072 34.374774468352314 L 105.23461989283322 34.44687918620228 L 105.10835356664433 34.50821803834562 L 104.97623911587408 34.55879102478232 L 104.83894110013395 34.59833232166778 L 104.69712407903552 34.6265761051574 L 104.5507880525787 34.643522375251166 L 104.39993302076357 34.64917113194909 L 104.08327036587409 34.621990643837904 L 103.80315848961823 34.54044917950435 L 103.55959739199596 34.404546738948426 L 103.35258707300736 34.21428332217013 L 103.18744400954455 33.975507053750846 L 103.06948467849966 33.69406605827194 L 102.99870907987275 33.369960335733424 L 102.97511721366376 33.0031898861353 L 102.99870907987275 32.635489053081045 L 103.06948467849966 32.310718770931004 L 103.18744400954455 32.028879039685194 L 103.35258707300736 31.7899698593436 L 103.55959739199596 31.599706442565306 L 103.80315848961823 31.46380400200937 L 104.08327036587409 31.382262537675814 L 104.39993302076357 31.35508204956463 L 104.53756331630944 31.359866878767576 L 104.67187081379774 31.374221366376418 L 104.8028555132284 31.398145512391153 L 104.93051741460147 31.431639316811783 L 105.05405904638312 31.474436955793692 L 105.17268293703953 31.526272605492295 L 105.28638908657067 31.587146265907563 L 105.39517749497656 31.657057937039525 L 105.39517749497656 32.11427494976557 L 105.28612326272605 32.01950874916277 L 105.17374623241795 31.93723626925653 L 105.05804640405225 31.86745751004689 L 104.93902377762893 31.810172471533832 L 104.81681126507033 31.76551406563965 L 104.69154177829873 31.73361520428668 L 104.56321531731413 31.714475887474876 L 104.43183188211654 31.708096115204285 L 104.1864764735432 31.72843163931681 L 103.97355157401205 31.789438211654385 L 103.7930571835231 31.89111583221701 L 103.64499330207636 32.03346450100469 L 103.5296257535164 32.216085482250506 L 103.44722036168787 32.438580040187546 L 103.39777712659074 32.70094817481581 L 103.38129604822504 33.0031898861353 L 103.39777712659074 33.30450121399866 L 103.44722036168787 33.566204789015416 L 103.5296257535164 33.788300611185534 L 103.64499330207636 33.970788680509045 L 103.7930571835231 34.11313734929672 L 103.97355157401205 34.21481496985935 L 104.1864764735432 34.27582154219692 L 104.43183188211654 34.29615706630945 L 104.53211392749498 34.29369819574683 L 104.62668076021433 34.28632158405895 L 104.71553238027462 34.274027231245825 L 104.79866878767581 34.25681513730744 L 104.87688745395178 34.234419478399204 L 104.9509858506363 34.20657443067648 L 105.02096397772942 34.17327999413932 L 105.08682183523109 34.134536168787676 Z" />
<path d="M 107.1304755525787 31.835691560616212 L 106.60520763563295 33.41574849296718 L 107.65787006028131 33.41574849296718 L 107.1304755525787 31.835691560616212 Z" />
<path d="M 106.91143670462156 31.412499999999994 L 107.3516409912927 31.412499999999994 L 108.44045545880778 34.587500000000006 L 108.03852980576022 34.587500000000006 L 107.77695914266579 33.773015740120556 L 106.48824514400536 33.773015740120556 L 106.22880107166779 34.587500000000006 L 105.82049564634963 34.587500000000006 L 106.91143670462156 31.412499999999994 Z" />
<path d="M 108.66162089752177 33.220102143335566 L 109.69301741460148 33.220102143335566 L 109.69301741460148 33.56886302746149 L 108.66162089752177 33.56886302746149 L 108.66162089752177 33.220102143335566 Z" />
<path d="M 111.42831547220362 31.703842933690552 L 111.22861530894173 31.72564048894843 L 111.05057978901542 31.79103315472203 L 110.89420891242466 31.900020931011383 L 110.75950267916946 32.052603817816475 L 110.65111300653047 32.24280077863362 L 110.57369181178834 32.46463077695914 L 110.52723909494307 32.71809381279304 L 110.51175485599464 33.0031898861353 L 110.52723909494307 33.28735557602144 L 110.57369181178834 33.54015405224381 L 110.65111300653047 33.76158531480242 L 110.75950267916946 33.95164936369726 L 110.89420891242466 34.10423225050235 L 111.05057978901542 34.2132200267917 L 111.22861530894173 34.278612692565304 L 111.42831547220362 34.30041024782318 L 111.62794917950436 34.278612692565304 L 111.80578533154721 34.2132200267917 L 111.96182392833222 34.10423225050235 L 112.09606496985936 33.95164936369726 L 112.20398945077025 33.76158531480242 L 112.28107836570663 33.54015405224381 L 112.32733171466845 33.28735557602144 L 112.34274949765572 33.0031898861353 L 112.32733171466845 32.71809381279304 L 112.28107836570663 32.46463077695914 L 112.20398945077025 32.24280077863362 L 112.09606496985936 32.052603817816475 L 111.96182392833222 31.900020931011383 L 111.80578533154721 31.79103315472203 L 111.62794917950436 31.72564048894843 L 111.42831547220362 31.703842933690552 Z" />
<path d="M 111.42831547220362 31.35508204956463 L 111.7140761051574 31.383060009209643 L 111.96953281982587 31.46699388814467 L 112.19468561620897 31.606883686369727 L 112.38953449430676 31.802729403884797 L 112.54676929839249 32.04562594189551 L 112.65907987273945 32.326668201607504 L 112.72646621734762 32.64585618302077 L 112.74892833221702 33.0031898861353 L 112.72646621734762 33.3595932057937 L 112.65907987273945 33.67811662759544 L 112.54676929839249 33.95876015154052 L 112.38953449430676 34.201523777628935 L 112.19468561620897 34.397369495144005 L 111.96953281982587 34.53725929336905 L 111.7140761051574 34.621193172304075 L 111.42831547220362 34.64917113194909 L 111.14248838328868 34.621259628265236 L 110.88683230073678 34.53752511721366 L 110.66134722454788 34.39796759879437 L 110.46603315472203 34.202587073007365 L 110.30833315890823 33.96015572672471 L 110.19569030475554 33.67944574681849 L 110.1281045922639 33.36045713328869 L 110.10557602143336 33.0031898861353 L 110.1281045922639 32.64585618302077 L 110.19569030475554 32.326668201607504 L 110.30833315890823 32.04562594189551 L 110.46603315472203 31.802729403884797 L 110.66134722454788 31.606883686369727 L 110.88683230073678 31.46699388814467 L 111.14248838328868 31.383060009209643 L 111.42831547220362 31.35508204956463 Z" />
<path d="M 113.30184192900202 33.6475468854655 L 113.30184192900202 32.20571835231078 L 113.65272940388479 32.20571835231078 L 113.65272940388479 33.632660750167446 L 113.66017247153383 33.791158217515076 L 113.6825016744809 33.92852268921635 L 113.71971701272605 34.04475416527127 L 113.77181848626927 34.13985264567984 L 113.8386731831882 34.213818130442064 L 113.92014819156063 34.266650619557936 L 114.01624351138648 34.29835011302745 L 114.12695914266578 34.30891661085063 L 114.2628615832217 34.29628997823174 L 114.38347915271265 34.258410080375086 L 114.48881185113865 34.19527691728064 L 114.57885967849967 34.10689048894842 L 114.65096439634962 33.99670650535833 L 114.70246776624248 33.86818067649028 L 114.73336978817815 33.721313002344274 L 114.74367046215673 33.55610348292029 L 114.74367046215673 32.20571835231078 L 115.09668452779638 32.20571835231078 L 115.09668452779638 34.587500000000006 L 114.74367046215673 34.587500000000006 L 114.74367046215673 34.22172638981915 L 114.67728095696583 34.323204642498325 L 114.60570788680508 34.41072714333556 L 114.52895125167447 34.48429389233087 L 114.44701105157401 34.54390488948425 L 114.35895690304756 34.58995887056261 L 114.26385842263898 34.62285457133288 L 114.1617156103483 34.64259199179503 L 114.05252846617549 34.64917113194909 L 113.87961005525787 34.6332217012726 L 113.72875502344274 34.58537340924313 L 113.59996337073008 34.505626255860676 L 113.4932350971199 34.39398024112525 L 113.40950058606833 34.25163157233757 L 113.3496902210315 34.079776456798385 L 113.31380400200939 33.8784148945077 L 113.30184192900202 33.6475468854655 Z" />
<path d="M 116.17061286001339 31.529462491627598 L 116.17061286001339 32.20571835231078 L 116.89578030810449 32.20571835231078 L 116.89578030810449 32.50982083054254 L 116.17061286001339 32.50982083054254 L 116.17061286001339 33.80278801071668 L 116.17506540941059 33.93543410917616 L 116.18842305760214 34.04202947086404 L 116.21068580458808 34.12257409578031 L 116.2418536503684 34.177067983924985 L 116.28671142414603 34.213352938713996 L 116.35004395512391 34.2392707635633 L 116.43185124330208 34.254821458472875 L 116.53213328868051 34.26000502344273 L 116.89578030810449 34.26000502344273 L 116.89578030810449 34.587500000000006 L 116.53213328868051 34.587500000000006 L 116.34472747823173 34.57693350217683 L 116.18868888144675 34.5452340087073 L 116.06401749832551 34.492401519591425 L 115.97071332886804 34.4184360348292 L 115.90279533657065 34.31655904638312 L 115.85428248492968 34.17999204621567 L 115.82517477394506 34.00873503432686 L 115.81547220361688 33.80278801071668 L 115.81547220361688 32.50982083054254 L 115.55815472203616 32.50982083054254 L 115.55815472203616 32.20571835231078 L 115.81547220361688 32.20571835231078 L 115.81547220361688 31.529462491627598 L 116.17061286001339 31.529462491627598 Z" />
<path d="M 23.760465505693233 31.412499999999994 L 25.278851306095106 31.412499999999994 L 25.278851306095106 31.774020428667114 L 24.11347957133289 31.774020428667114 L 24.11347957133289 32.55235264567983 L 24.15594493050905 32.53740005442063 L 24.198277377762892 32.52444114199598 L 24.24047691309444 32.513475908405894 L 24.28254353650368 32.504504353650375 L 24.324610159912922 32.49752647772941 L 24.366809695244484 32.49254228064299 L 24.409142142498325 32.48955176239116 L 24.451607501674488 32.488554922973876 L 24.678421697086407 32.50676385632954 L 24.880381363027468 32.56139065639651 L 25.057486499497656 32.652435323174814 L 25.209737106496988 32.779897856664434 L 25.3320825309779 32.93846177997321 L 25.41947211989283 33.12281061620898 L 25.471905873241795 33.33294436537173 L 25.48938379102478 33.56886302746149 L 25.471440681513727 33.81082918201608 L 25.417611352980572 34.02421927327529 L 25.327895805425314 34.20903330123912 L 25.202294038847953 34.365271265907566 L 25.04399593938379 34.48947745730074 L 24.856191393168118 34.57819616543871 L 24.638880400200932 34.63142739032149 L 24.39206296048225 34.64917113194909 L 24.30135057350971 34.64704454119223 L 24.209973626925645 34.640664768921624 L 24.117932120730075 34.6300318151373 L 24.025226054922967 34.615145679839245 L 23.931323781815138 34.596006363027456 L 23.835693653717357 34.572613864701935 L 23.73833567062961 34.5449681848627 L 23.63924983255191 34.51306932350971 L 23.63924983255191 34.08137139986604 L 23.726107773777628 34.13015007535165 L 23.814427746148695 34.17228315472204 L 23.9042097496651 34.207770637977234 L 23.995453784326855 34.23661252511721 L 24.088691497823177 34.2589417280643 L 24.184454537843266 34.274891158740786 L 24.282742904387135 34.28446081714668 L 24.383556597454785 34.28765070328198 L 24.540791401540517 34.27555571835231 L 24.68074765572672 34.2392707635633 L 24.803425360013392 34.17879583891494 L 24.908824514400536 34.09413094440724 L 24.993489408908232 33.9887317900201 L 25.053964333556593 33.866054085733424 L 25.090249288345603 33.72609783154722 L 25.10234427327528 33.56886302746149 L 25.090249288345603 33.41162822337576 L 25.053964333556593 33.271671969189555 L 24.993489408908232 33.14899426490288 L 24.908824514400536 33.04359511051574 L 24.803425360013392 32.95893021600804 L 24.68074765572672 32.89845529135968 L 24.540791401540517 32.86217033657067 L 24.383556597454785 32.850075351640996 L 24.30600249079035 32.85246776624247 L 24.22858129604822 32.85964501004689 L 24.151293013228397 32.87160708305426 L 24.074137642330882 32.88835398526457 L 23.996716447588753 32.91015154052245 L 23.918630693235087 32.93726557267247 L 23.83988037926993 32.96969608171467 L 23.760465505693233 33.007443067649035 L 23.760465505693233 31.412499999999994 Z" />
<path d="M 26.02103148024112 33.220102143335566 L 27.052427997320834 33.220102143335566 L 27.052427997320834 33.56886302746149 L 26.02103148024112 33.56886302746149 L 26.02103148024112 33.220102143335566 Z" />
<path d="M 27.730810448760877 34.225979571332886 L 28.362407903549894 34.225979571332886 L 28.362407903549894 31.803792699263226 L 27.673392498325512 31.956907233757534 L 27.673392498325512 31.5656145344943 L 28.358154722036176 31.412499999999994 L 28.74519423978566 31.412499999999994 L 28.74519423978566 34.225979571332886 L 29.376791694574678 34.225979571332886 L 29.376791694574678 34.587500000000006 L 27.730810448760877 34.587500000000006 L 27.730810448760877 34.225979571332886 Z" />
<path d="M 30.488998660415277 34.225979571332886 L 31.837257200267914 34.225979571332886 L 31.837257200267914 34.587500000000006 L 30.02327528466175 34.587500000000006 L 30.02327528466175 34.225979571332886 L 30.142896014735427 34.08861509963161 L 30.282719356999337 33.92958598459478 L 30.44274531145345 33.74889222622237 L 30.622973878097795 33.5465338245144 L 30.7956264651708 33.35228305006697 L 30.932924480910913 33.195912173476216 L 31.034867925318153 33.07742119474213 L 31.10145679839249 32.9968101138647 L 31.186985620395177 32.88536346701272 L 31.25855869055593 32.78282191895512 L 31.31617600887475 32.68918546969189 L 31.359837575351634 32.604454119223035 L 31.391935804588073 32.524507597957125 L 31.414863111185525 32.44522563630275 L 31.428619495144005 32.36660823425987 L 31.4332049564635 32.28865539182853 L 31.423236562290697 32.16797136637642 L 31.393331379772263 32.05898359008708 L 31.34348940890824 31.96169206296048 L 31.273710649698586 31.876096784996648 L 31.187849547890153 31.806318025787007 L 31.089760549229737 31.75647605492297 L 30.97944365371734 31.72657087240455 L 30.856898861352974 31.71660247823175 L 30.765189634963164 31.72098857166779 L 30.670822170127252 31.734146851975893 L 30.57379646684528 31.756077319156063 L 30.474112525117206 31.78677997320831 L 30.37137160917615 31.826387726054918 L 30.26517498325518 31.875033489618218 L 30.155522647354317 31.932717263898184 L 30.04241460147354 31.999439048894843 L 30.04241460147354 31.5656145344943 L 30.157449870227722 31.5167029470864 L 30.268630693235096 31.474171131949106 L 30.375957070495645 31.43801908908239 L 30.479429002009383 31.408246818486276 L 30.57878066393168 31.384987232083063 L 30.673746232417955 31.36837324179504 L 30.76432570746819 31.35840484762224 L 30.850519089082383 31.35508204956463 L 31.061450309778962 31.3704998325519 L 31.24978650368385 31.416753181513727 L 31.415527670797047 31.493842096450095 L 31.558673811118553 31.60176657736102 L 31.674041359678498 31.735475971198937 L 31.756446751507028 31.889919624916274 L 31.805889986604157 32.06509753851307 L 31.822371064969857 32.26100971198929 L 31.818250795378432 32.357570223543206 L 31.805889986604143 32.45160540857334 L 31.785288638647017 32.54311526707971 L 31.756446751507028 32.63209979906229 L 31.716706086738114 32.72374256949095 L 31.663408405894174 32.82322714333557 L 31.59655370897522 32.93055352059612 L 31.516141995981243 33.04572170127261 L 31.478727289852642 33.09111112273945 L 31.415394758874754 33.16560825519089 L 31.32614440304755 33.26921309862692 L 31.21097622237106 33.401925653047556 L 31.069757304922973 33.563878830375074 L 30.902354738780986 33.75520554253181 L 30.708768523945082 33.97590578951775 L 30.488998660415277 34.225979571332886 Z" />
<path d="M 33.349263228399195 34.587500000000006 L 32.25832217012726 31.412499999999994 L 32.66237441393167 31.412499999999994 L 33.56830207635633 34.085624581379776 L 34.476356329537836 31.412499999999994 L 34.87828198258539 31.412499999999994 L 33.78946751507033 34.587500000000006 L 33.349263228399195 34.587500000000006 Z" />
<path d="M 36.34350301406563 33.220102143335566 L 37.374899531145346 33.220102143335566 L 37.374899531145346 33.56886302746149 L 36.34350301406563 33.56886302746149 L 36.34350301406563 33.220102143335566 Z" />
<path d="M 38.78270261219022 31.282777963831208 L 38.662350866543875 31.526671341259203 L 38.55861311118554 31.769235599464167 L 38.471489346115206 32.01047073844609 L 38.40097957133288 32.25037675820495 L 38.34655213914937 32.490415689886134 L 38.307675401875414 32.73204956463496 L 38.284349359511054 32.975278382451435 L 38.27657401205626 33.220102143335566 L 38.2844158154722 33.46512527210315 L 38.307941225720015 33.70895219357 L 38.34715024279973 33.951582907736096 L 38.40204286671131 34.19301741460147 L 38.472884921299396 34.43418609762223 L 38.55994223040858 34.67601934025453 L 38.66321479403885 34.91851714249833 L 38.78270261219022 35.16167950435366 L 38.47647354320161 35.16167950435366 L 38.34103629437374 34.91286838580041 L 38.22394089082384 34.66618385800402 L 38.1251873325519 34.4216259209645 L 38.04477561955794 34.179194574681844 L 37.98243992799732 33.93822525954454 L 37.93791443402546 33.69805341594105 L 37.91119913764233 33.4586790438714 L 37.902294038847955 33.220102143335566 L 37.91119913764233 32.98258853817816 L 37.93791443402546 32.744277461486945 L 37.98243992799732 32.5051689132619 L 38.04477561955794 32.26526289350302 L 38.1251873325519 32.02362901875419 L 38.22394089082384 31.779336905559276 L 38.34103629437374 31.532386553918286 L 38.47647354320161 31.282777963831208 L 38.78270261219022 31.282777963831208 Z" />
<path d="M 40.2947086403215 32.48004855994641 L 40.16066696667784 32.495399886972535 L 40.04137851640991 32.541453868050894 L 39.93684328951775 32.618210503181515 L 39.847061286001335 32.72566979236437 L 39.77495656815137 32.859844377930344 L 39.72345319825854 33.016746902210315 L 39.69255117632284 33.196377365204285 L 39.682250502344274 33.39873576691225 L 39.69248472036169 33.60109416862022 L 39.723187374413925 33.780724631614206 L 39.774358464501006 33.93762715589418 L 39.845997990622905 34.07180174146015 L 39.93544771433355 34.179261030643005 L 40.04004939718686 34.25601766577361 L 40.15980303918285 34.30207164685197 L 40.2947086403215 34.317422973878095 L 40.42868385800402 34.302005190890824 L 40.547772940388484 34.255751841929 L 40.651975887474876 34.17866292699263 L 40.74129269926323 34.07073844608172 L 40.812932225385126 33.936231580709986 L 40.86410331547219 33.77939551239116 L 40.89480596952444 33.600230241125246 L 40.90504018754186 33.39873576691225 L 40.89480596952444 33.198105220194236 L 40.86410331547219 33.0194051406564 L 40.812932225385126 32.862635528298725 L 40.74129269926323 32.72779638312123 L 40.651975887474876 32.61940671048225 L 40.547772940388484 32.54198551574012 L 40.42868385800402 32.49553279889484 L 40.2947086403215 32.48004855994641 Z" />
<path d="M 40.2947086403215 32.14830040187542 L 40.512086089249834 32.16903466175485 L 40.70487483255191 32.23123744139316 L 40.873074870227725 32.334908740790354 L 41.0166862022773 32.48004855994641 L 41.131588559109176 32.6618720696584 L 41.213661671131945 32.875594440723376 L 41.262905538345606 33.12121567314132 L 41.27932016075016 33.39873576691225 L 41.262905538345606 33.67539193318821 L 41.213661671131945 33.92054797387809 L 41.131588559109176 34.134203888981915 L 41.0166862022773 34.316359678499666 L 40.873074870227725 34.46196468938379 L 40.70487483255191 34.56596826858673 L 40.512086089249834 34.628370416108496 L 40.2947086403215 34.64917113194909 L 40.07653371985934 34.628370416108496 L 39.88347915271265 34.56596826858673 L 39.71554493888145 34.46196468938379 L 39.572731078365706 34.316359678499666 L 39.45875910498995 34.134203888981915 L 39.37735055257869 33.92054797387809 L 39.328505421131936 33.67539193318821 L 39.31222371064969 33.39873576691225 L 39.328505421131936 33.12121567314132 L 39.37735055257869 32.875594440723376 L 39.45875910498995 32.6618720696584 L 39.572731078365706 32.48004855994641 L 39.71554493888145 32.334908740790354 L 39.88347915271265 32.23123744139316 L 40.07653371985934 32.16903466175485 L 40.2947086403215 32.14830040187542 Z" />
<path d="M 43.295328198258545 31.85695746818486 L 43.295328198258545 33.04146851975888 L 44.36075016744809 33.04146851975888 L 44.36075016744809 33.402988948425985 L 43.295328198258545 33.402988948425985 L 43.295328198258545 34.587500000000006 L 42.97421299397186 34.587500000000006 L 42.97421299397186 33.402988948425985 L 41.906664434025444 33.402988948425985 L 41.906664434025444 33.04146851975888 L 42.97421299397186 33.04146851975888 L 42.97421299397186 31.85695746818486 L 43.295328198258545 31.85695746818486 Z" />
</g>
</svg>