<?xml version="1.0" encoding="UTF-8"?>
<svg xmlns="http://www.w3.org/2000/svg" width="151.0mm" height="41.0mm" viewBox="0 0 151.0 41.0">
<g fill="none" stroke="#000000" stroke-width="0.1">
<path d="M 2.0 39.0 L 149.0 39.0 L 149.0 2.0 L 2.0 2.0 L 2.0 39.0" />
<circle cx="70.5" cy="20.5" r="5.0" />
<circle cx="84.5" cy="20.5" r="5.0" />
<circle cx="98.5" cy="20.5" r="5.0" />
<circle cx="12.0" cy="20.5" r="2.5" />
<path d="M 2.0 22.0 L 12.0 22.0 L 12.0 19.0 L 2.0 19.0 L 2.0 22.0" />
<path d="M 30.0 26.0 L 61.0 26.0 L 61.0 15.0 L 30.0 15.0 L 30.0 26.0" />
<path d="M 8.189149363697254 33.098886470194245 L 8.251352143335566 33.12892456463496 L 8.312491627595449 33.172253851306095 L 8.372567816476888 33.22887433020763 L 8.431580709979912 33.29878600133958 L 8.490194867716014 33.38252051239115 L 8.549074849296716 33.48060951105157 L 8.608220654722032 33.593052997320825 L 8.667632283991964 33.71985097119892 L 9.061051574012055 34.587500000000006 L 8.644239785666443 34.587500000000006 L 8.278466175485605 33.773015740120556 L 8.20875387223711 33.62694553750836 L 8.13997195244474 33.50772354320161 L 8.072120416108504 33.41534975720026 L 8.005199263228405 33.34982417950435 L 7.9326958096115305 33.30423539015405 L 7.848097371064966 33.271671969189555 L 7.751403947588756 33.252133916610845 L 7.642615539182856 33.245621232417946 L 7.221550569323512 33.245621232417946 L 7.221550569323512 34.587500000000006 L 6.834511051574012 34.587500000000006 L 6.834511051574012 31.412499999999994 L 7.706413261888812 31.412499999999994 L 7.936350887474887 31.42672157568653 L 8.134921299397192 31.469386302746145 L 8.302124497655726 31.54049418117883 L 8.437960482250503 31.640045210984596 L 8.543093812793032 31.76830521600803 L 8.618189048894834 31.925540020093763 L 8.663246190555924 32.11174962324179 L 8.678265237776287 32.326934025452104 L 8.670489890321505 32.47047890154052 L 8.647163847957131 32.60126423308773 L 8.608287110683193 32.719290020093766 L 8.553859678499663 32.8245562625586 L 8.484413199095783 32.91586675318152 L 8.400479320160741 32.992025284661764 L 8.302058041694579 33.05303185699934 L 8.189149363697254 33.098886470194245 Z" />
<path d="M 7.221550569323512 31.76551406563965 L 7.221550569323512 32.892607166778305 L 7.706413261888812 32.892607166778305 L 7.838128976892165 32.88363561202277 L 7.952566141995987 32.8567209477562 L 8.049724757200266 32.811863173978566 L 8.12960482250503 32.74906229068989 L 8.191940514065635 32.66884994557938 L 8.23646600803751 32.571757786336235 L 8.263181304420627 32.45778581296048 L 8.272086403214999 32.326934025452104 L 8.263181304420627 32.196215149866035 L 8.23646600803751 32.0826419122572 L 8.191940514065635 31.98621431262559 L 8.12960482250503 31.906932350971204 L 8.049724757200266 31.845061851138652 L 7.952566141995987 31.800868636972538 L 7.838128976892165 31.774352708472875 L 7.706413261888812 31.76551406563965 L 7.221550569323512 31.76551406563965 Z" />
<path d="M 11.504504353650375 34.134536168787676 L 11.504504353650375 33.281773275284664 L 10.872906898861359 33.281773275284664 L 10.872906898861359 32.92875920964501 L 11.887290689886129 32.92875920964501 L 11.887290689886129 34.291903884795715 L 11.772720612860013 34.374774468352314 L 11.652302411252506 34.44687918620228 L 11.526036085063623 34.50821803834562 L 11.393921634293363 34.55879102478232 L 11.256623618553249 34.59833232166778 L 11.114806597454788 34.6265761051574 L 10.968470570997994 34.643522375251166 L 10.817615539182853 34.64917113194909 L 10.500952884293369 34.621990643837904 L 10.22084100803751 34.54044917950435 L 9.977279910415263 34.404546738948426 L 9.770269591426654 34.21428332217013 L 9.605126527963833 33.975507053750846 L 9.487167196918946 33.69406605827194 L 9.416391598292023 33.369960335733424 L 9.392799732083049 33.0031898861353 L 9.416391598292023 32.635489053081045 L 9.487167196918946 32.310718770931004 L 9.605126527963833 32.028879039685194 L 9.770269591426654 31.7899698593436 L 9.977279910415263 31.599706442565306 L 10.22084100803751 31.46380400200937 L 10.500952884293369 31.382262537675814 L 10.817615539182853 31.35508204956463 L 10.955245834728728 31.359866878767576 L 11.089553332217008 31.374221366376418 L 11.220538031647692 31.398145512391153 L 11.348199933020766 31.431639316811783 L 11.471741564802414 31.474436955793692 L 11.590365455458809 31.526272605492295 L 11.704071604989949 31.587146265907563 L 11.812860013395849 31.657057937039525 L 11.812860013395849 32.11427494976557 L 11.703805781145348 32.01950874916277 L 11.591428750837238 31.93723626925653 L 11.475728922471532 31.86745751004689 L 11.35670629604823 31.810172471533832 L 11.234493783489626 31.76551406563965 L 11.109224296718025 31.73361520428668 L 10.98089783573343 31.714475887474876 L 10.849514400535838 31.708096115204285 L 10.604158991962493 31.72843163931681 L 10.391234092431347 31.789438211654385 L 10.210739701942387 31.89111583221701 L 10.062675820495642 32.03346450100469 L 9.947308271935697 32.216085482250506 L 9.864902880107167 32.438580040187546 L 9.815459645010037 32.70094817481581 L 9.798978566644337 33.0031898861353 L 9.815459645010037 33.30450121399866 L 9.864902880107167 33.566204789015416 L 9.947308271935697 33.788300611185534 L 10.062675820495642 33.970788680509045 L 10.210739701942387 34.11313734929672 L 10.391234092431347 34.21481496985935 L 10.604158991962493 34.27582154219692 L 10.849514400535838 34.29615706630945 L 10.949796445914274 34.29369819574683 L 11.044363278633625 34.28632158405895 L 11.133214898693907 34.274027231245825 L 11.216351306095106 34.25681513730744 L 11.294569972371065 34.234419478399204 L 11.368668369055598 34.20657443067648 L 11.438646496148692 34.17327999413932 L 11.504504353650375 34.134536168787676 Z" />
<path d="M 12.98035833891494 33.07124079035499 L 12.98035833891494 34.23448593436035 L 13.599196249162759 34.23448593436035 L 13.745332907736099 34.22551437960482 L 13.871134042196914 34.19859971533825 L 13.976599652545218 34.15374194156061 L 14.061729738780983 34.09094105827194 L 14.127321772438052 34.00966541778298 L 14.17417322505024 33.90938337240456 L 14.202284096617547 33.79009492213663 L 14.211654387139987 33.651800066979234 L 14.202284096617547 33.51270774028801 L 14.17417322505024 33.39315346617548 L 14.127321772438052 33.293137244641656 L 14.061729738780983 33.21265907568653 L 13.976599652545218 33.15078857585398 L 13.871134042196914 33.10659536168788 L 13.745332907736099 33.08007943318822 L 13.599196249162759 33.07124079035499 L 12.98035833891494 33.07124079035499 Z" />
<path d="M 12.98035833891494 31.76551406563965 L 12.98035833891494 32.72247990622907 L 13.552411252511718 32.72247990622907 L 13.684857983087738 32.715103294541194 L 13.799361604152708 32.69297345947756 L 13.895922115706625 32.65609040103817 L 13.974539517749491 32.604454119223035 L 14.03547963412592 32.53766587826523 L 14.079008288680512 32.45532694239786 L 14.105125481413268 32.3574373116209 L 14.113831212324186 32.24399698593436 L 14.105125481413268 32.131420587742795 L 14.079008288680512 32.0339961486939 L 14.03547963412592 31.95172366878768 L 13.974539517749491 31.884603148024112 L 13.895922115706625 31.83250167448091 L 13.799361604152708 31.795286336235762 L 13.684857983087738 31.772957133288685 L 13.552411252511718 31.76551406563965 L 12.98035833891494 31.76551406563965 Z" />
<path d="M 12.59331882116544 31.412499999999994 L 13.58005693235097 31.412499999999994 L 13.78852928248493 31.42525954454119 L 13.971615455458803 31.463538178164768 L 14.129315451272603 31.527335900870725 L 14.261629269926317 31.616652712659075 L 14.366297408740792 31.72949493469524 L 14.441060365036833 31.86386888814468 L 14.485918138814469 32.01977457300737 L 14.500870730073672 32.19721198928332 L 14.493228294541183 32.33544038847957 L 14.47030098794373 32.458782652377764 L 14.432088810281314 32.56723878097789 L 14.37859176155392 32.66080877427997 L 14.31020857752847 32.738828072672476 L 14.227337993971872 32.800632116543866 L 14.129980010884125 32.84622090589417 L 14.018134628265244 32.875594440723376 L 14.1535718770931 32.91885727143335 L 14.27279387139987 32.9805948593436 L 14.375800611185525 33.06080720445412 L 14.462592096450095 33.1594943067649 L 14.531440472203613 33.274130839752175 L 14.580617883456128 33.402191476892156 L 14.610124330207626 33.54367621818486 L 14.619959812458134 33.698585063630276 L 14.603678101975888 33.899149154387146 L 14.554832970529134 34.07552327528467 L 14.473424418117887 34.22770742632284 L 14.359452444742132 34.35570160750167 L 14.215442376925651 34.4571134042197 L 14.043919541192224 34.529550401875426 L 13.844883937541866 34.57301260046886 L 13.618335565974547 34.587500000000006 L 12.59331882116544 34.587500000000006 L 12.59331882116544 31.412499999999994 Z" />
<path d="M 16.993235097119893 31.5167029470864 L 16.993235097119893 31.935641326188886 L 16.885177704286676 31.880881614199595 L 16.780044373744133 31.83356496985934 L 16.677835105492292 31.793691393168118 L 16.57854989953114 31.761260884125917 L 16.48165710817146 31.736140530810445 L 16.38662508372404 31.718197421299394 L 16.29345382618888 31.707431555592763 L 16.202143335565978 31.703842933690552 L 16.052816790857335 31.712349296718017 L 15.921699179504344 31.737868385800397 L 15.808790501507033 31.780400200937706 L 15.714090756865374 31.839944742129944 L 15.639194888647026 31.915172890154054 L 15.585697839919618 32.004755525787004 L 15.553599610683193 32.10869264902881 L 15.542900200937709 32.226984259879444 L 15.550010988780983 32.32580427411253 L 15.571343352310777 32.41173183188212 L 15.606897291527133 32.48476693318821 L 15.65667280643001 32.54490957803081 L 15.726385109678503 32.59601421215673 L 15.821749413931684 32.64193528131278 L 15.942765719189552 32.682672785498994 L 16.089434025452107 32.718226724715336 L 16.32123241795044 32.77139149363697 L 16.52385664350301 32.8258189258205 L 16.697904805760217 32.89765781982585 L 16.843376904722035 32.98690817565304 L 16.960272940388478 33.09356999330208 L 17.050054943904883 33.218706568151376 L 17.114184946416614 33.36338119557938 L 17.152662947923645 33.52759387558608 L 17.16548894842599 33.71134460817147 L 17.148143942565298 33.92812395344943 L 17.096108924983255 34.11699179504353 L 17.009383895679832 34.27794813295378 L 16.887968854655057 34.41099296718018 L 16.732927097287345 34.51519591426657 L 16.545321918955125 34.589626590756865 L 16.325153319658412 34.63428499665103 L 16.07242129939719 34.64917113194909 L 15.96881645596116 34.645981245813786 L 15.86215463831212 34.636411587407906 L 15.752435846450098 34.620462156731406 L 15.63966008037508 34.59813295378433 L 15.524358987776282 34.569556890488954 L 15.407064216342931 34.53486687876759 L 15.287775766075015 34.49406291862023 L 15.166493636972532 34.44714501004688 L 15.166493636972532 34.00481413261889 L 15.283854864367044 34.07366250837241 L 15.39988697253851 34.13347287340925 L 15.514589961486948 34.184245227729406 L 15.627963831212327 34.225979571332886 L 15.740274405559276 34.25854299229739 L 15.85178750837241 34.281802578700606 L 15.962503139651716 34.29575833054254 L 16.07242129939719 34.30041024782318 L 16.227928248492972 34.2913722371065 L 16.36482752846618 34.26425820495646 L 16.483119139316813 34.21906815137308 L 16.582803081044872 34.15580207635632 L 16.661885674815807 34.07578909912927 L 16.718373241795035 33.980358338914925 L 16.752265781982587 33.86950979571333 L 16.763563295378432 33.743243469524444 L 16.75545566811789 33.632660750167446 L 16.731132786336232 33.534837575351645 L 16.69059465003349 33.44977394507703 L 16.633841259209646 33.377469859343606 L 16.558613111185537 33.3156658154722 L 16.46265070328198 33.26210231078366 L 16.34595403549899 33.21677934527797 L 16.20852310783657 33.17969691895513 L 15.974598124581377 33.12865874079036 L 15.772771370562623 33.07403194072337 L 15.601115622906903 33.00584812458138 L 15.459630881614203 32.92410729236437 L 15.348317146684522 32.828809444072334 L 15.26411744390488 32.71676469357 L 15.20397479906228 32.58478315472203 L 15.167889212156723 32.432864827528476 L 15.155860683188209 32.26100971198929 L 15.172541129437377 32.061641828533155 L 15.222582468184868 31.884603148024112 L 15.305984699430681 31.72989367046216 L 15.422747823174817 31.597513395847287 L 15.56875156982585 31.49144968184862 L 15.739875669792369 31.415689886135297 L 15.936120123074346 31.3702340087073 L 16.157484929671796 31.35508204956463 L 16.25889672638982 31.35760737608841 L 16.36110599464166 31.365183355659738 L 16.46411273442733 31.377809988278628 L 16.567916945746816 31.39548727394508 L 16.672651540522438 31.418215212659078 L 16.77844943067649 31.445993804420624 L 16.885310616208983 31.47882304922973 L 16.993235097119893 31.5167029470864 Z" />
<path d="M 40.025092096450095 33.098886470194245 L 40.08729487608841 33.12892456463496 L 40.14843436034829 33.172253851306095 L 40.20851054922974 33.22887433020763 L 40.26752344273275 33.29878600133958 L 40.326137600468854 33.38252051239115 L 40.38501758204957 33.48060951105157 L 40.44416338747489 33.593052997320825 L 40.503575016744804 33.71985097119892 L 40.89699430676491 34.587500000000006 L 40.4801825184193 34.587500000000006 L 40.114408908238445 33.773015740120556 L 40.04469660498995 33.62694553750836 L 39.975914685197594 33.50772354320161 L 39.90806314886136 33.41534975720026 L 39.841141995981246 33.34982417950435 L 39.76863854236437 33.30423539015405 L 39.68404010381781 33.271671969189555 L 39.5873466803416 33.252133916610845 L 39.4785582719357 33.245621232417946 L 39.05749330207635 33.245621232417946 L 39.05749330207635 34.587500000000006 L 38.67045378432687 34.587500000000006 L 38.67045378432687 31.412499999999994 L 39.54235599464167 31.412499999999994 L 39.77229362022773 31.42672157568653 L 39.97086403215003 31.469386302746145 L 40.138067230408566 31.54049418117883 L 40.273903215003344 31.640045210984596 L 40.37903654554589 31.76830521600803 L 40.45413178164769 31.925540020093763 L 40.49918892330878 32.11174962324179 L 40.51420797052914 32.326934025452104 L 40.506432623074346 32.47047890154052 L 40.483106580709986 32.60126423308773 L 40.444229843436034 32.719290020093766 L 40.38980241125252 32.8245562625586 L 40.32035593184864 32.91586675318152 L 40.236422052913596 32.992025284661764 L 40.13800077444742 33.05303185699934 L 40.025092096450095 33.098886470194245 Z" />
<path d="M 39.05749330207635 31.76551406563965 L 39.05749330207635 32.892607166778305 L 39.54235599464167 32.892607166778305 L 39.674071709645006 32.88363561202277 L 39.78850887474883 32.8567209477562 L 39.88566748995311 32.811863173978566 L 39.96554755525787 32.74906229068989 L 40.02788324681849 32.66884994557938 L 40.072408740790365 32.571757786336235 L 40.09912403717348 32.45778581296048 L 40.108029135967854 32.326934025452104 L 40.09912403717348 32.196215149866035 L 40.072408740790365 32.0826419122572 L 40.02788324681849 31.98621431262559 L 39.96554755525787 31.906932350971204 L 39.88566748995311 31.845061851138652 L 39.78850887474883 31.800868636972538 L 39.674071709645006 31.774352708472875 L 39.54235599464167 31.76551406563965 L 39.05749330207635 31.76551406563965 Z" />
<path d="M 43.340447086403216 34.134536168787676 L 43.340447086403216 33.281773275284664 L 42.7088496316142 33.281773275284664 L 42.7088496316142 32.92875920964501 L 43.723233422638984 32.92875920964501 L 43.723233422638984 34.291903884795715 L 43.608663345612854 34.374774468352314 L 43.48824514400536 34.44687918620228 L 43.36197881781648 34.50821803834562 L 43.22986436704622 34.55879102478232 L 43.092566351306104 34.59833232166778 L 42.95074933020764 34.6265761051574 L 42.80441330375085 34.643522375251166 L 42.65355827193571 34.64917113194909 L 42.336895617046224 34.621990643837904 L 42.056783740790365 34.54044917950435 L 41.81322264316812 34.404546738948426 L 41.60621232417951 34.21428332217013 L 41.44106926071669 33.975507053750846 L 41.3231099296718 33.69406605827194 L 41.25233433104488 33.369960335733424 L 41.2287424648359 33.0031898861353 L 41.25233433104488 32.635489053081045 L 41.3231099296718 32.310718770931004 L 41.44106926071669 32.028879039685194 L 41.60621232417951 31.7899698593436 L 41.81322264316812 31.599706442565306 L 42.056783740790365 31.46380400200937 L 42.336895617046224 31.382262537675814 L 42.65355827193571 31.35508204956463 L 42.79118856748158 31.359866878767576 L 42.92549606496986 31.374221366376418 L 43.05648076440053 31.398145512391153 L 43.18414266577361 31.431639316811783 L 43.307684297555255 31.474436955793692 L 43.42630818821165 31.526272605492295 L 43.540014337742804 31.587146265907563 L 43.64880274614869 31.657057937039525 L 43.64880274614869 32.11427494976557 L 43.53974851389819 32.01950874916277 L 43.42737148359009 31.93723626925653 L 43.31167165522439 31.86745751004689 L 43.19264902880107 31.810172471533832 L 43.07043651624247 31.76551406563965 L 42.945167029470866 31.73361520428668 L 42.81684056848627 31.714475887474876 L 42.68545713328868 31.708096115204285 L 42.44010172471533 31.72843163931681 L 42.22717682518419 31.789438211654385 L 42.04668243469524 31.89111583221701 L 41.8986185532485 32.03346450100469 L 41.78325100468855 32.216085482250506 L 41.70084561286002 32.438580040187546 L 41.65140237776289 32.70094817481581 L 41.63492129939719 33.0031898861353 L 41.65140237776289 33.30450121399866 L 41.70084561286002 33.566204789015416 L 41.78325100468855 33.788300611185534 L 41.8986185532485 33.970788680509045 L 42.04668243469524 34.11313734929672 L 42.22717682518419 34.21481496985935 L 42.44010172471533 34.27582154219692 L 42.68545713328868 34.29615706630945 L 42.785739178667114 34.29369819574683 L 42.880306011386466 34.28632158405895 L 42.96915763144675 34.274027231245825 L 43.05229403884796 34.25681513730744 L 43.13051270512392 34.234419478399204 L 43.20461110180844 34.20657443067648 L 43.27458922890153 34.17327999413932 L 43.340447086403216 34.134536168787676 Z" />
<path d="M 44.81630107166778 33.07124079035499 L 44.81630107166778 34.23448593436035 L 45.435138981915614 34.23448593436035 L 45.581275640488954 34.22551437960482 L 45.70707677494977 34.19859971533825 L 45.81254238529806 34.15374194156061 L 45.897672471533824 34.09094105827194 L 45.96326450519089 34.00966541778298 L 46.01011595780308 33.90938337240456 L 46.03822682937039 33.79009492213663 L 46.04759711989283 33.651800066979234 L 46.03822682937039 33.51270774028801 L 46.01011595780308 33.39315346617548 L 45.96326450519089 33.293137244641656 L 45.897672471533824 33.21265907568653 L 45.81254238529806 33.15078857585398 L 45.70707677494977 33.10659536168788 L 45.581275640488954 33.08007943318822 L 45.435138981915614 33.07124079035499 L 44.81630107166778 33.07124079035499 Z" />
<path d="M 44.81630107166778 31.76551406563965 L 44.81630107166778 32.72247990622907 L 45.38835398526457 32.72247990622907 L 45.52080071584059 32.715103294541194 L 45.63530433690556 32.69297345947756 L 45.73186484845948 32.65609040103817 L 45.810482250502346 32.604454119223035 L 45.871422366878775 32.53766587826523 L 45.91495102143335 32.45532694239786 L 45.94106821416611 32.3574373116209 L 45.94977394507703 32.24399698593436 L 45.94106821416611 32.131420587742795 L 45.91495102143335 32.0339961486939 L 45.871422366878775 31.95172366878768 L 45.810482250502346 31.884603148024112 L 45.73186484845948 31.83250167448091 L 45.63530433690556 31.795286336235762 L 45.52080071584059 31.772957133288685 L 45.38835398526457 31.76551406563965 L 44.81630107166778 31.76551406563965 Z" />
<path d="M 44.42926155391828 31.412499999999994 L 45.415999665103826 31.412499999999994 L 45.624472015237785 31.42525954454119 L 45.80755818821166 31.463538178164768 L 45.96525818402546 31.527335900870725 L 46.09757200267917 31.616652712659075 L 46.20224014149363 31.72949493469524 L 46.27700309778969 31.86386888814468 L 46.32186087156731 32.01977457300737 L 46.33681346282653 32.19721198928332 L 46.32917102729404 32.33544038847957 L 46.306243720696585 32.458782652377764 L 46.268031543034155 32.56723878097789 L 46.21453449430676 32.66080877427997 L 46.14615131028131 32.738828072672476 L 46.06328072672471 32.800632116543866 L 45.96592274363698 32.84622090589417 L 45.854077361018085 32.875594440723376 L 45.989514609845955 32.91885727143335 L 46.10873660415271 32.9805948593436 L 46.21174334393838 33.06080720445412 L 46.29853482920295 33.1594943067649 L 46.36738320495647 33.274130839752175 L 46.41656061620898 33.402191476892156 L 46.44606706296048 33.54367621818486 L 46.45590254521099 33.698585063630276 L 46.43962083472874 33.899149154387146 L 46.39077570328199 34.07552327528467 L 46.30936715087073 34.22770742632284 L 46.19539517749497 34.35570160750167 L 46.051385109678506 34.4571134042197 L 45.87986227394508 34.529550401875426 L 45.68082667029472 34.57301260046886 L 45.4542782987274 34.587500000000006 L 44.42926155391828 34.587500000000006 L 44.42926155391828 31.412499999999994 Z" />
<path d="M 47.11727227059612 31.412499999999994 L 47.50431178834562 31.412499999999994 L 47.50431178834562 32.713973543201604 L 48.90786168787676 32.713973543201604 L 48.90786168787676 31.412499999999994 L 49.29490120562626 31.412499999999994 L 49.29490120562626 34.587500000000006 L 48.90786168787676 34.587500000000006 L 48.90786168787676 33.075493971868724 L 47.50431178834562 33.075493971868724 L 47.50431178834562 34.587500000000006 L 47.11727227059612 34.587500000000006 L 47.11727227059612 31.412499999999994 Z" />
<path d="M 50.800527461486936 34.587500000000006 L 49.709586403215 31.412499999999994 L 50.11363864701943 31.412499999999994 L 51.01956630944407 34.085624581379776 L 51.92762056262559 31.412499999999994 L 52.32954621567313 31.412499999999994 L 51.24073174815807 34.587500000000006 L 50.800527461486936 34.587500000000006 Z" />
<path d="M 69.29422304085733 31.412499999999994 L 69.71103482920296 31.412499999999994 L 70.50212659075686 32.718226724715336 L 71.28896517079704 31.412499999999994 L 71.70577695914267 31.412499999999994 L 70.69351975887474 33.075493971868724 L 70.69351975887474 34.587500000000006 L 70.30648024112526 34.587500000000006 L 70.30648024112526 33.075493971868724 L 69.29422304085733 31.412499999999994 Z" />
<path d="M 82.76151205626255 31.76551406563965 L 82.76151205626255 32.95853148024112 L 83.24637474882786 32.95853148024112 L 83.37377082635632 32.94882890991292 L 83.48588203281983 32.91972119892833 L 83.58270836821836 32.871208347287336 L 83.66424983255192 32.803290354989954 L 83.72891148275284 32.71742925318151 L 83.77509837575352 32.61508707300737 L 83.8028105115539 32.49626381446751 L 83.81204789015405 32.36095947756196 L 83.8028105115539 32.22658552411252 L 83.77509837575352 32.108426825184196 L 83.72891148275284 32.006483380776956 L 83.66424983255192 31.92075519089083 L 83.58270836821836 31.852837198593434 L 83.48588203281983 31.80432434695244 L 83.37377082635632 31.77521663596785 L 83.24637474882786 31.76551406563965 L 82.76151205626255 31.76551406563965 Z" />
<path d="M 82.37447253851306 31.412499999999994 L 83.24637474882786 31.412499999999994 L 83.47199273693906 31.427585503181504 L 83.66823719022102 31.472842012726048 L 83.83510810867381 31.548269528633625 L 83.97260549229739 31.653868050904222 L 84.08006478148025 31.78857428415941 L 84.15682141661085 31.95132493302077 L 84.20287539768924 32.14211999748828 L 84.21822672471535 32.36095947756196 L 84.20287539768924 32.581593268586744 L 84.15682141661085 32.77351808439384 L 84.08006478148025 32.93673392498326 L 83.97260549229739 33.07124079035499 L 83.83510810867381 33.17637412089752 L 83.66823719022102 33.25146935699934 L 83.47199273693906 33.29652649866041 L 83.24637474882786 33.311545545880776 L 82.76151205626255 33.311545545880776 L 82.76151205626255 34.587500000000006 L 82.37447253851306 34.587500000000006 L 82.37447253851306 31.412499999999994 Z" />
<path d="M 86.2597538513061 33.39873576691225 L 86.2497854571333 33.194516598292026 L 86.21988027461487 33.01355701607501 L 86.17003830375083 32.855857020261226 L 86.10025954454119 32.72141661085064 L 86.01306932350971 32.61395732166778 L 85.91099296718016 32.537200686537176 L 85.79403047555257 32.49114670545882 L 85.66218184862691 32.47579537843269 L 85.52940283824515 32.49114670545882 L 85.41177578700604 32.537200686537176 L 85.30930069490958 32.61395732166778 L 85.22197756195578 32.72141661085064 L 85.15219880274614 32.855857020261226 L 85.1023568318821 33.01355701607501 L 85.0724516493637 33.194516598292026 L 85.0624832551909 33.39873576691225 L 85.0724516493637 33.60295493553248 L 85.1023568318821 33.783914517749494 L 85.15219880274614 33.941614513563295 L 85.22197756195578 34.07605492297388 L 85.30930069490958 34.18351421215674 L 85.41177578700604 34.260270847287345 L 85.52940283824515 34.3063248283657 L 85.66218184862691 34.32167615539183 L 85.79403047555257 34.3063248283657 L 85.91099296718016 34.260270847287345 L 86.01306932350971 34.18351421215674 L 86.10025954454119 34.07605492297388 L 86.17003830375083 33.941614513563295 L 86.21988027461487 33.783914517749494 L 86.2497854571333 33.60295493553248 L 86.2597538513061 33.39873576691225 Z" />
<path d="M 85.0624832551909 32.5672387809779 L 85.12142969273276 32.4677542071333 L 85.18768628600134 32.38195956128601 L 85.26125303499666 32.30985484343604 L 85.34212993971869 32.251440053583394 L 85.43084864785666 32.20631645596116 L 85.52794080709981 32.17408531480241 L 85.6334064174481 32.15474663010717 L 85.74724547890153 32.14830040187542 L 85.93365444993302 32.16983213328868 L 86.10158866376423 32.234427327528465 L 86.25104812039518 32.342085984594775 L 86.38203281982587 32.49280810448761 L 86.48856172555259 32.678618971868715 L 86.56465380107167 32.89154387139986 L 86.61030904638312 33.131582803081045 L 86.62552746148694 33.39873576691225 L 86.61030904638312 33.665888730743475 L 86.56465380107167 33.90592766242466 L 86.48856172555259 34.118852561955805 L 86.38203281982587 34.30466342933691 L 86.25104812039518 34.455385549229746 L 86.10158866376423 34.56304420629604 L 85.93365444993302 34.62763940053583 L 85.74724547890153 34.64917113194909 L 85.6334064174481 34.64272490371734 L 85.52794080709981 34.623386219022095 L 85.43084864785666 34.59115507786336 L 85.34212993971869 34.546031480241126 L 85.26125303499666 34.48761669038848 L 85.18768628600134 34.41551197253851 L 85.12142969273276 34.329717326691224 L 85.0624832551909 34.23023275284662 L 85.0624832551909 34.587500000000006 L 84.70734259879438 34.587500000000006 L 84.70734259879438 31.278524782317476 L 85.0624832551909 31.278524782317476 L 85.0624832551909 32.5672387809779 Z" />
<path d="M 97.09219691895512 31.76551406563965 L 97.09219691895512 32.95853148024112 L 97.57705961152044 32.95853148024112 L 97.7044556890489 32.94882890991292 L 97.81656689551238 32.91972119892833 L 97.91339323091091 32.871208347287336 L 97.99493469524447 32.803290354989954 L 98.05959634544541 32.71742925318151 L 98.1057832384461 32.61508707300737 L 98.13349537424648 32.49626381446751 L 98.14273275284663 32.36095947756196 L 98.13349537424648 32.22658552411252 L 98.1057832384461 32.108426825184196 L 98.05959634544541 32.006483380776956 L 97.99493469524447 31.92075519089083 L 97.91339323091091 31.852837198593434 L 97.81656689551238 31.80432434695244 L 97.7044556890489 31.77521663596785 L 97.57705961152044 31.76551406563965 L 97.09219691895512 31.76551406563965 Z" />
<path d="M 96.70515740120564 31.412499999999994 L 97.57705961152044 31.412499999999994 L 97.80267759963164 31.427585503181504 L 97.9989220529136 31.472842012726048 L 98.16579297136639 31.548269528633625 L 98.30329035498994 31.653868050904222 L 98.4107496441728 31.78857428415941 L 98.4875062793034 31.95132493302077 L 98.53356026038179 32.14211999748828 L 98.5489115874079 32.36095947756196 L 98.53356026038179 32.581593268586744 L 98.4875062793034 32.77351808439384 L 98.4107496441728 32.93673392498326 L 98.30329035498994 33.07124079035499 L 98.16579297136639 33.17637412089752 L 97.9989220529136 33.25146935699934 L 97.80267759963164 33.29652649866041 L 97.57705961152044 33.311545545880776 L 97.09219691895512 33.311545545880776 L 97.09219691895512 34.587500000000006 L 96.70515740120564 34.587500000000006 L 96.70515740120564 31.412499999999994 Z" />
<path d="M 100.29484259879436 32.57149196249162 L 100.26440576858673 32.553615308941716 L 100.23263981915605 32.538263981915605 L 100.19954475050235 32.52543798141326 L 100.16512056262559 32.5151373074347 L 100.12923434360349 32.50722904805761 L 100.09175318151375 32.50158029135969 L 100.05267707635633 32.49819103734093 L 100.01200602813128 32.49706128600134 L 99.87085356664434 32.510551846115206 L 99.74724547890156 32.5510235264568 L 99.64118176490288 32.618476327026116 L 99.55266242464836 32.712910247823174 L 99.48288366543872 32.832597433858 L 99.43304169457468 32.97581003014065 L 99.40313651205625 33.14254803667113 L 99.39316811788345 33.33281145344944 L 99.39316811788345 34.587500000000006 L 99.03802746148693 34.587500000000006 L 99.03802746148693 32.20571835231078 L 99.39316811788345 32.20571835231078 L 99.39316811788345 32.57574514400535 L 99.45271265907567 32.47426689132618 L 99.52076356329536 32.38674439048894 L 99.59732083054251 32.31317764149364 L 99.68238446081713 32.25356664434025 L 99.77635318988612 32.207512663261895 L 99.8796257535164 32.174616962491626 L 99.99220215170797 32.15487954202948 L 100.11408238446083 32.14830040187542 L 100.13269005358339 32.14863268168118 L 100.15236101808438 32.14962952109846 L 100.17309527796382 32.15129092012725 L 100.1948928332217 32.15361687876758 L 100.217753683858 32.15660739701943 L 100.24167782987274 32.160262474882785 L 100.26666527126591 32.164582112357664 L 100.2927160080375 32.16956630944408 L 100.29484259879436 32.57149196249162 Z" />
</g>
</svg>